<svg xmlns="http://www.w3.org/2000/svg" viewBox="0 0 1103.72 193.15"><defs><style>.baf93c82-8dc0-4649-b799-a33460759384{fill:#70acb1;}.a52ac3df-ff52-4707-ad03-257f5afbf0ad{fill:#c6f1e7;}.f637c5bb-ee26-4f70-b20b-2a1629bb8c5a,.f8d5eeb3-0c5a-4d91-8950-3e04a76bd63d{fill:#59606d;}.ea473a5e-d638-4f3c-9ad3-d2e6be1acda0{fill:#9bc5c8;}.b4fefcf2-f474-4b19-938a-827af2363757,.fdecd72e-3997-47c2-bc6f-cab38342995a{fill:#d7f5ee;}.f8d5eeb3-0c5a-4d91-8950-3e04a76bd63d,.fdecd72e-3997-47c2-bc6f-cab38342995a{font-size:98.38px;font-family:Georgia-Bold, Georgia;font-weight:700;}</style></defs><g id="ea9b9b7c-bbd0-4827-9408-475b5ed79f29" data-name="Objeto"><g id="afe067b9-11ad-4e9f-b0ce-920a0b9b6416" data-name="Cabeza"><polygon class="baf93c82-8dc0-4649-b799-a33460759384" points="0 73.44 96.87 0 194.72 73.44 146.81 108.75 96.87 72.39 48.68 108.75 0 73.44"/></g><polyline id="b3c0d3fc-cace-4d7b-946d-c3b9a71546a2" data-name="Derecha1" class="a52ac3df-ff52-4707-ad03-257f5afbf0ad" points="96.87 72.39 97.36 108.75 122.72 126.64 122.72 175.84 146.29 193.15 146.29 121.47 121.58 103.81 121.58 90.38 96.87 72.39"/><polygon id="aba74337-d67c-4964-8214-ed91ba9ee231" data-name="Izquierda1" class="a52ac3df-ff52-4707-ad03-257f5afbf0ad" points="0 73.44 0 108.75 24.34 126.64 24.34 175.49 48.17 193.15 48.17 159.25 24.34 140.89 48.17 122.17 24.08 103.81 24.08 90.91 0 73.44"/><g id="b5ea3b77-7ea6-4c8d-9321-814dfd2f54e3" data-name="Derecha2"><polygon class="f637c5bb-ee26-4f70-b20b-2a1629bb8c5a" points="194.72 73.44 171.15 90.39 171.15 103.81 146.29 121.47 146.29 193.15 170.5 176.2 170.5 126.64 194.72 108.75 194.72 73.44"/></g><g id="bda8e36b-72d6-4389-b73b-a73cd317a760" data-name="Izquierda2"><polyline class="f637c5bb-ee26-4f70-b20b-2a1629bb8c5a" points="48.17 193.15 72.25 175.14 72.25 126.64 97.36 108.75 96.87 72.39 72.76 90.58 72.76 103.81 48.17 122.17 48.17 159.25"/></g><g id="ab919fa4-c812-457a-af6b-e9fd24b60a11" data-name="TrianguloI2"><polygon class="baf93c82-8dc0-4649-b799-a33460759384" points="48.17 122.17 48.17 159.25 72.25 140.71 48.17 122.17"/></g><g id="f7412787-ea0d-47ae-a2e2-d01d1c4a3289" data-name="TrianguloD2"><polygon class="baf93c82-8dc0-4649-b799-a33460759384" points="146.29 121.47 146.29 158.54 170.38 140 146.29 121.47"/></g><g id="f73faab0-a68f-44b5-9a81-71bf6b520799" data-name="FlechaI"><polygon class="ea473a5e-d638-4f3c-9ad3-d2e6be1acda0" points="72.76 90.58 72.76 103.81 48.17 122.17 24.08 103.81 24.08 90.91 48.68 108.75 72.76 90.58"/><path class="ea473a5e-d638-4f3c-9ad3-d2e6be1acda0" d="M35.68,253.6" transform="translate(-11.6 -162.69)"/></g><g id="e23edd44-e1d3-4b17-aca4-0785deb49e32" data-name="FlechaD"><polygon class="ea473a5e-d638-4f3c-9ad3-d2e6be1acda0" points="121.58 90.38 121.58 103.81 146.29 121.47 171.15 103.81 171.15 90.39 146.81 108.75 121.58 90.38"/></g><g id="b7bfbfd5-4e50-488f-a634-eef5f5b6463b" data-name="TrianguloI1"><polygon class="b4fefcf2-f474-4b19-938a-827af2363757" points="48.17 122.13 24.34 140.89 48.17 159.21 48.17 122.13"/></g><g id="a9c15667-a7fa-4320-80df-9950c7aa2df2" data-name="TrianguloD1"><polygon class="b4fefcf2-f474-4b19-938a-827af2363757" points="146.29 121.47 146.29 158.54 122.72 140 146.29 121.47"/></g></g><g id="eccd25cc-97e9-4da1-8817-bffa80290f3b" data-name="Texto"><g id="b8ad74c3-d9a2-43ce-8dfb-0b3336ec132b" data-name="Barra_negra"><rect class="baf93c82-8dc0-4649-b799-a33460759384" x="252.58" y="40.6" width="851.14" height="152.55"/></g><g id="b321ee95-702c-477b-9475-b40a199d04a6" data-name="Barra_blanca"><rect class="b4fefcf2-f474-4b19-938a-827af2363757" x="280.58" y="69.53" width="627.16" height="96"/></g><text class="fdecd72e-3997-47c2-bc6f-cab38342995a" transform="translate(929.83 154.11) scale(1.04 1)">PE</text><text class="f8d5eeb3-0c5a-4d91-8950-3e04a76bd63d" transform="translate(309.68 154.11) scale(1.07 1)">Enséñame</text></g></svg>